<svg fill="none" height="100%" width="100%" viewBox="0 0 1280 800" xmlns:xlink="http://www.w3.org/1999/xlink" xmlns="http://www.w3.org/2000/svg"><defs><clipPath id="i0"><rect height="122" width="207" y="0" x="0" /></clipPath><g id="i1"><g transform="matrix(1,0,0,1,454.073,71.369)" id="i2"><g id="i3" transform="matrix(1,0,0,1,-993.227,-177.736)"><path stroke-miterlimit="1" stroke-linecap="square" stroke-width="0" stroke-opacity="0" stroke="#000000" fill="#262626" d="M578.789,187.837C574.385,188.571,568.146,188.938,560.072,188.938C551.998,188.938,546.494,187.594,543.558,184.901C540.621,182.212,539.154,176.369,539.154,167.378C539.154,158.387,539.825,148.51,541.172,137.744C542.518,126.981,544.017,119.059,545.668,113.982C547.319,108.907,550.591,106.367,555.484,106.367C558.787,106.367,560.683,107.775,561.173,110.587C561.173,111.321,561.173,112.485,561.173,114.073C561.173,115.664,560.806,117.926,560.071,120.862C557.135,142.394,555.667,157.744,555.667,166.919C555.667,169.121,555.728,170.956,555.851,172.424C558.053,172.914,561.018,173.158,564.751,173.158C568.48,173.158,573.22,172.791,578.972,172.057C579.215,169.488,579.338,166.034,579.338,161.69C579.338,157.349,579.399,153.708,579.522,150.772C579.642,147.836,580.072,145.758,580.806,144.534C581.54,143.312,583.65,142.699,587.136,142.699C590.623,142.699,592.825,143.312,593.742,144.534C594.659,145.758,595.118,147.441,595.118,149.58C595.118,151.722,594.934,156.185,594.567,162.975C594.201,169.764,594.017,188.879,594.017,220.316C594.017,225.821,591.325,228.573,585.944,228.573C585.697,228.573,585.454,228.573,585.21,228.573C580.683,228.573,578.421,224.843,578.421,217.38C578.421,217.38,578.421,207.288,578.421,207.288C578.421,207.288,578.789,187.837,578.789,187.837Z" /></g></g><g transform="matrix(1,0,0,1,521.966,71.552)" id="i2"><g id="i3" transform="matrix(1,0,0,1,-1061.12,-177.919)"><path stroke-miterlimit="1" stroke-linecap="square" stroke-width="0" stroke-opacity="0" stroke="#000000" fill="#262626" d="M643.378,211.691C647.782,211.691,651.481,209.397,654.48,204.81C657.476,200.223,659.526,195.085,660.627,189.396C661.728,183.708,662.278,176.308,662.278,167.193C662.278,158.081,661.053,148.385,658.608,138.11C657.383,132.485,655.517,127.989,653.011,124.623C650.502,121.26,647.475,119.577,643.928,119.577C639.157,119.577,635.057,122.452,631.634,128.201C625.516,138.6,622.459,152.422,622.459,169.67C622.459,180.926,624.569,190.743,628.79,199.121C633.011,207.502,637.873,211.691,643.378,211.691ZM607.047,170.405C607.047,154.014,609.983,139.578,615.855,127.101C618.791,120.742,622.764,115.725,627.782,112.055C632.797,108.385,638.545,106.55,645.03,106.55C654.572,106.55,662.371,112.76,668.426,125.175C674.482,137.592,677.509,152.332,677.509,169.397C677.509,186.462,674.694,200.591,669.069,211.784C663.441,222.977,655.49,228.574,645.215,228.574C619.768,228.572,607.047,209.185,607.047,170.405Z" /></g></g><g transform="matrix(1,0,0,1,605.088,71.369)" id="i2"><g id="i3" transform="matrix(1,0,0,1,-1144.241,-177.736)"><path stroke-miterlimit="1" stroke-linecap="square" stroke-width="0" stroke-opacity="0" stroke="#000000" fill="#262626" d="M729.803,187.837C725.399,188.571,719.16,188.938,711.086,188.938C703.013,188.938,697.508,187.594,694.572,184.901C691.635,182.212,690.168,176.369,690.168,167.378C690.168,158.387,690.839,148.51,692.187,137.744C693.532,126.981,695.032,119.059,696.683,113.982C698.334,108.907,701.606,106.367,706.499,106.367C709.802,106.367,711.697,107.775,712.187,110.587C712.187,111.321,712.187,112.485,712.187,114.073C712.187,115.664,711.82,117.926,711.085,120.862C708.149,142.394,706.682,157.744,706.682,166.919C706.682,169.121,706.743,170.956,706.866,172.424C709.068,172.914,712.032,173.158,715.765,173.158C719.494,173.158,724.234,172.791,729.986,172.057C730.229,169.488,730.353,166.034,730.353,161.69C730.353,157.349,730.413,153.708,730.537,150.772C730.657,147.836,731.087,145.758,731.821,144.534C732.554,143.312,734.665,142.699,738.151,142.699C741.637,142.699,743.839,143.312,744.757,144.534C745.674,145.758,746.133,147.441,746.133,149.58C746.133,151.722,745.949,156.185,745.582,162.975C745.215,169.764,745.031,188.879,745.031,220.316C745.031,225.821,742.34,228.573,736.958,228.573C736.711,228.573,736.468,228.573,736.224,228.573C731.698,228.573,729.435,224.843,729.435,217.38C729.435,217.38,729.435,207.288,729.435,207.288C729.435,207.288,729.803,187.837,729.803,187.837Z" /></g></g></g><clipPath id="i4"><rect height="52" width="270" y="0" x="0" /></clipPath><g id="i5"><g transform="matrix(1,0,0,1,941.534,342.288)" id="i6"><g id="i7" transform="matrix(1,0,0,1,-1445.338,-615.565)"><path stroke-miterlimit="1" stroke-linecap="square" stroke-width="0" stroke-opacity="0" stroke="#000000" fill="#383838" d="M518.663,284.294C518.663,282.92,517.916,281.835,516.424,281.037C514.93,280.24,513.336,279.841,511.64,279.841C509.943,279.841,508.756,279.993,508.078,280.299C507.942,282.301,507.875,284.141,507.875,285.82C507.875,287.5,507.942,289.018,508.078,290.375C508.994,290.477,509.622,290.562,509.961,290.63C510.843,290.732,511.598,290.782,512.226,290.782C512.854,290.782,513.278,290.774,513.498,290.757C513.719,290.74,514.143,290.69,514.77,290.604C515.397,290.52,515.846,290.375,516.119,290.172C516.39,289.968,516.729,289.697,517.137,289.358C517.544,289.019,517.832,288.629,518.002,288.188C518.441,286.966,518.663,285.668,518.663,284.294ZM504.158,304.473C503.921,300.979,503.803,296.254,503.803,290.3C503.803,284.346,503.887,280.487,504.057,278.722C504.227,277.637,504.973,276.915,506.296,276.559C507.619,276.203,509.366,276.025,511.538,276.025C514.726,276.025,517.416,276.712,519.604,278.086C521.792,279.46,522.886,281.488,522.886,284.168C522.886,286.374,522.58,288.214,521.97,289.689C521.36,291.165,520.596,292.259,519.68,292.972C518.187,294.126,515.982,294.702,513.064,294.702C511.808,294.702,510.164,294.533,508.127,294.193C508.297,300.979,508.364,305.254,508.331,307.018C508.297,308.783,507.702,309.664,506.55,309.664C505.803,309.664,505.328,309.529,505.125,309.257C504.921,308.986,504.785,308.791,504.718,308.672C504.65,308.553,504.581,308.375,504.514,308.137C504.446,307.9,504.395,307.704,504.362,307.552C504.328,307.399,504.302,307.17,504.286,306.865C504.268,306.559,504.243,306.323,504.21,306.152C504.176,305.643,504.158,305.083,504.158,304.473Z" /></g></g><g transform="matrix(1,0,0,1,964.74,352.161)" id="i6"><g id="i7" transform="matrix(1,0,0,1,-1468.542,-625.437)"><path stroke-miterlimit="1" stroke-linecap="square" stroke-width="0" stroke-opacity="0" stroke="#000000" fill="#383838" d="M536.576,290.528C534.642,290.528,533.2,291.088,532.25,292.208C531.3,293.328,530.825,295.38,530.825,298.366C530.825,303.387,532.181,305.898,534.896,305.898C535.609,305.898,536.398,305.576,537.263,304.931C538.127,304.287,538.73,303.557,539.07,302.743C539.714,300.911,540.037,298.91,540.037,296.738C540.037,294.567,539.773,292.989,539.248,292.005C538.722,291.021,537.831,290.528,536.576,290.528ZM541.869,285.897C543.361,285.897,544.108,287.169,544.108,289.713C544.108,289.985,544.108,290.273,544.108,290.578C544.108,290.578,544.006,294.14,544.006,294.14C543.972,295.26,543.954,296.363,543.954,297.448C543.954,297.448,544.718,308.949,544.718,308.949C544.718,309.797,543.853,310.221,542.122,310.221C542.02,310.221,541.774,310.221,541.385,310.221C540.994,310.221,540.723,310.069,540.571,309.763C540.419,309.458,540.401,309.085,540.52,308.643C540.638,308.203,540.596,307.71,540.393,307.167C538.831,308.83,536.762,309.661,534.184,309.661C529.4,309.661,527.008,305.963,527.008,298.567C527.008,294.462,527.779,291.358,529.323,289.254C530.866,287.151,533.08,286.099,535.965,286.099C537.321,286.099,538.679,286.337,540.036,286.812C540.478,286.203,541.088,285.897,541.869,285.897Z" /></g></g><g transform="matrix(1,0,0,1,986.217,352.313)" id="i6"><g id="i7" transform="matrix(1,0,0,1,-1490.019,-625.589)"><path stroke-miterlimit="1" stroke-linecap="square" stroke-width="0" stroke-opacity="0" stroke="#000000" fill="#383838" d="M562.175,296.813C562.175,294.354,561.81,292.623,561.08,291.622C560.351,290.622,559.205,290.121,557.645,290.121C556.083,290.121,554.828,290.833,553.878,292.259C552.928,293.684,552.453,295.49,552.453,297.679C552.453,299.868,552.902,301.606,553.802,302.895C554.7,304.185,556.083,304.829,557.949,304.829C559.814,304.829,561.019,304.032,561.562,302.437C561.971,301.148,562.175,299.274,562.175,296.813ZM562.226,307.577C561.004,309.002,559.46,309.714,557.594,309.714C555.728,309.714,554.116,309.138,552.76,307.984C549.909,305.779,548.485,302.403,548.485,297.857C548.485,294.295,549.468,291.437,551.437,289.282C553.404,287.128,555.831,286.05,558.714,286.05C561.597,286.05,563.566,287.034,564.617,289.002C565.533,290.732,565.991,293.345,565.991,296.839C565.991,296.839,565.889,301.012,565.889,301.012C565.889,302.98,565.982,305.702,566.168,309.18C566.355,312.657,566.448,315.278,566.448,317.043C566.448,319.96,565.727,322.106,564.285,323.481C562.843,324.856,560.646,325.542,557.695,325.542C555.93,325.542,554.133,325.168,552.3,324.422C550.468,323.675,549.552,322.81,549.552,321.827C549.552,321.115,549.746,320.572,550.137,320.199C550.527,319.825,550.977,319.639,551.486,319.639C551.995,319.639,553.14,320.012,554.921,320.759C556.702,321.505,557.983,321.879,558.764,321.879C561.206,321.879,562.428,319.877,562.428,315.874C562.429,311.869,562.36,309.104,562.226,307.577Z" /></g></g><g transform="matrix(1,0,0,1,1007.082,352.364)" id="i6"><g id="i7" transform="matrix(1,0,0,1,-1510.885,-625.641)"><path stroke-miterlimit="1" stroke-linecap="square" stroke-width="0" stroke-opacity="0" stroke="#000000" fill="#383838" d="M577.849,289.612C576.559,289.612,575.457,290.342,574.541,291.8C574.201,292.309,573.879,293.463,573.574,295.26C578.323,295.26,580.698,294.09,580.698,291.749C580.698,290.325,579.748,289.612,577.849,289.612ZM577.595,286.101C579.393,286.101,581.106,286.628,582.735,287.679C584.364,288.731,585.177,290.029,585.177,291.573C585.177,293.117,584.516,294.61,583.193,296.052C581.87,297.494,580.105,298.367,577.9,298.673C576.95,298.809,575.525,298.877,573.626,298.877C573.999,301.761,574.728,303.661,575.814,304.577C576.152,304.951,576.61,305.137,577.188,305.137C579.291,305.137,581.055,304.468,582.48,303.127C583.906,301.787,584.923,301.117,585.534,301.117C585.805,301.117,586.213,301.371,586.756,301.88C587.298,302.389,587.57,302.865,587.57,303.305C587.57,304.187,586.501,305.46,584.364,307.122C583.414,307.903,582.268,308.556,580.928,309.081C579.587,309.607,578.34,309.87,577.188,309.87C574.236,309.87,572.064,307.97,570.673,304.17C569.79,301.829,569.35,299.251,569.35,296.434C569.35,293.619,570.012,291.192,571.335,289.157C572.658,287.122,574.744,286.101,577.595,286.101Z" /></g></g><g transform="matrix(1,0,0,1,1041.331,351.499)" id="i6"><g id="i7" transform="matrix(1,0,0,1,-1545.132,-624.776)"><path stroke-miterlimit="1" stroke-linecap="square" stroke-width="0" stroke-opacity="0" stroke="#000000" fill="#383838" d="M604.159,308.086C604.159,308.086,603.598,287.424,603.598,287.424C603.598,286.78,603.819,286.254,604.26,285.846C604.7,285.439,605.142,285.236,605.583,285.236C606.668,285.236,607.296,285.694,607.466,286.61C607.601,287.526,607.669,288.476,607.669,289.46C609.501,287.052,611.792,285.847,614.54,285.847C618.746,285.847,620.851,290.648,620.851,300.249C620.851,301.132,620.851,302.463,620.851,304.244C620.851,306.025,620.748,307.323,620.545,308.137C620.307,309.155,619.578,309.664,618.357,309.664C617.543,309.664,617.135,309.122,617.135,308.036C617.135,308.036,617.186,305.186,617.186,305.186C617.186,301.251,617.059,298.562,616.805,297.12C616.55,295.679,616.304,294.534,616.067,293.685C615.49,291.853,614.557,290.937,613.268,290.937C611.571,290.937,610.383,291.548,609.706,292.769C608.959,294.092,608.518,295.653,608.383,297.451C608.145,300.606,608.027,303.949,608.027,307.476C608.027,308.155,607.773,308.698,607.263,309.105C606.754,309.512,606.144,309.715,605.431,309.715C604.583,309.714,604.159,309.172,604.159,308.086Z" /></g></g><g transform="matrix(1,0,0,1,1062.654,352.211)" id="i6"><g id="i7" transform="matrix(1,0,0,1,-1566.457,-625.487)"><path stroke-miterlimit="1" stroke-linecap="square" stroke-width="0" stroke-opacity="0" stroke="#000000" fill="#383838" d="M633.625,290.121C632.2,290.121,631.029,290.868,630.113,292.36C629.197,293.854,628.739,295.431,628.739,297.093C628.739,299.672,629.248,301.64,630.265,302.996C631.284,304.353,632.436,305.032,633.726,305.032C636.033,305.032,637.509,304.032,638.154,302.03C638.425,301.081,638.561,299.893,638.561,298.468C638.562,292.904,636.915,290.121,633.625,290.121ZM634.235,285.948C636.678,285.948,638.688,287.118,640.266,289.459C641.843,291.8,642.632,294.608,642.632,297.882C642.632,301.156,641.825,303.947,640.215,306.254C638.603,308.562,636.465,309.714,633.802,309.714C631.139,309.714,628.993,308.536,627.364,306.177C625.735,303.819,624.922,301.198,624.922,298.314C624.922,294.616,625.667,291.665,627.161,289.459C628.756,287.119,631.113,285.948,634.235,285.948Z" /></g></g><g transform="matrix(1,0,0,1,1081.892,339.641)" id="i6"><g id="i7" transform="matrix(1,0,0,1,-1585.694,-612.917)"><path stroke-miterlimit="1" stroke-linecap="square" stroke-width="0" stroke-opacity="0" stroke="#000000" fill="#383838" d="M647.009,285.897C647.009,285.897,649.554,285.948,649.554,285.948C650.13,285.948,650.452,285.931,650.521,285.897C650.521,285.897,650.521,275.464,650.521,275.464C650.554,274.888,650.843,274.396,651.386,273.988C651.928,273.581,652.437,273.377,652.912,273.377C653.387,273.377,653.768,273.53,654.058,273.835C654.346,274.14,654.473,274.616,654.44,275.26C654.406,275.905,654.388,279.433,654.388,285.845C654.388,285.845,660.343,285.641,660.343,285.641C661.361,285.641,661.869,286.235,661.869,287.422C661.869,288.305,661.606,288.966,661.08,289.407C660.554,289.848,659.994,290.086,659.401,290.119C658.806,290.153,658.221,290.17,657.645,290.17C657.645,290.17,654.541,290.119,654.541,290.119C654.541,291.511,654.685,294.259,654.974,298.364C655.262,302.469,655.491,305.125,655.661,306.328C655.831,307.533,655.865,308.313,655.764,308.669C655.661,309.025,655.475,309.272,655.203,309.407C654.762,309.611,654.168,309.712,653.422,309.712C652.676,309.712,652.234,309.305,652.099,308.491C651.42,304.047,650.962,297.94,650.725,290.17C650.42,290.204,649.249,290.221,647.214,290.221C645.178,290.221,644.16,289.628,644.16,288.44C644.159,286.746,645.108,285.897,647.009,285.897Z" /></g></g><g transform="matrix(1,0,0,1,1111.813,339.54)" id="i6"><g id="i7" transform="matrix(1,0,0,1,-1615.615,-612.815)"><path stroke-miterlimit="1" stroke-linecap="square" stroke-width="0" stroke-opacity="0" stroke="#000000" fill="#383838" d="M681.896,274.014C682.421,273.624,682.879,273.403,683.27,273.352C683.66,273.301,684.559,273.276,685.967,273.276C687.374,273.276,688.536,273.479,689.452,273.886C690.368,274.293,690.827,275.108,690.827,276.329C690.827,277.551,690.334,278.161,689.35,278.161C689.147,278.161,688.57,277.983,687.62,277.627C686.67,277.271,686.059,277.093,685.788,277.093C684.6,277.093,683.888,277.805,683.651,279.23C683.583,279.739,683.548,280.782,683.548,282.36C683.548,283.938,683.548,285.235,683.548,286.253C683.548,286.253,687.11,286.253,687.11,286.253C688.603,286.321,689.349,286.847,689.349,287.831C689.349,289.256,688.331,290.003,686.295,290.07C685.99,290.104,685.616,290.121,685.176,290.121C684.735,290.121,684.226,290.104,683.65,290.07C683.717,291.427,683.87,293.845,684.108,297.322C684.344,300.8,684.463,304.184,684.463,307.475C684.463,308.154,684.192,308.697,683.65,309.104C683.106,309.511,682.546,309.714,681.97,309.714C681.054,309.714,680.596,309.172,680.596,308.086C680.596,305.032,680.477,302.064,680.24,299.18C680.003,296.297,679.833,293.26,679.731,290.071C676.677,290.071,674.896,289.766,674.387,289.155C674.184,288.918,674.081,288.613,674.081,288.239C674.081,287.357,674.445,286.781,675.176,286.509C675.905,286.238,676.744,286.102,677.695,286.102C678.646,286.102,679.324,286.102,679.731,286.102C679.833,280.573,680.138,277.145,680.647,275.822C680.954,275.006,681.369,274.404,681.896,274.014Z" /></g></g><g transform="matrix(1,0,0,1,1130.645,352.211)" id="i6"><g id="i7" transform="matrix(1,0,0,1,-1634.448,-625.487)"><path stroke-miterlimit="1" stroke-linecap="square" stroke-width="0" stroke-opacity="0" stroke="#000000" fill="#383838" d="M701.615,290.121C700.19,290.121,699.019,290.868,698.103,292.36C697.187,293.854,696.729,295.431,696.729,297.093C696.729,299.672,697.238,301.64,698.255,302.996C699.274,304.353,700.426,305.032,701.716,305.032C704.023,305.032,705.499,304.032,706.144,302.03C706.415,301.081,706.551,299.893,706.551,298.468C706.552,292.904,704.905,290.121,701.615,290.121ZM702.226,285.948C704.669,285.948,706.679,287.118,708.257,289.459C709.834,291.8,710.623,294.608,710.623,297.882C710.623,301.156,709.816,303.947,708.206,306.254C706.594,308.562,704.456,309.714,701.793,309.714C699.13,309.714,696.984,308.536,695.355,306.177C693.726,303.819,692.913,301.198,692.913,298.314C692.913,294.616,693.658,291.665,695.152,289.459C696.746,287.119,699.104,285.948,702.226,285.948Z" /></g></g><g transform="matrix(1,0,0,1,1150.95,352.11)" id="i6"><g id="i7" transform="matrix(1,0,0,1,-1654.753,-625.386)"><path stroke-miterlimit="1" stroke-linecap="square" stroke-width="0" stroke-opacity="0" stroke="#000000" fill="#383838" d="M714.49,286.432C714.93,286.042,715.381,285.847,715.839,285.847C716.297,285.847,716.653,285.932,716.907,286.101C717.162,286.271,717.314,286.424,717.365,286.559C717.416,286.695,717.475,286.933,717.544,287.272C717.34,289.918,717.238,292.302,717.238,294.422C717.238,296.543,717.493,298.969,718.002,301.7C718.511,304.431,719.07,305.797,719.681,305.797C720.598,305.797,721.759,305.288,723.167,304.27C724.574,303.252,725.585,302.184,726.195,301.064C725.788,296.178,725.585,291.988,725.585,288.494C725.585,287.782,725.814,287.171,726.272,286.662C726.73,286.153,727.281,285.899,727.926,285.899C728.977,285.899,729.503,286.611,729.503,288.036C729.503,290.445,729.682,294.024,730.037,298.774C730.393,303.524,730.758,306.544,731.132,307.833C731.199,308.105,731.234,308.418,731.234,308.774C731.234,309.13,731.005,309.47,730.547,309.792C730.089,310.114,729.494,310.275,728.766,310.275C728.036,310.275,727.552,309.868,727.315,309.053C727.247,308.375,727.078,307.357,726.806,306C724.431,308.477,722.039,309.715,719.63,309.715C718.511,309.715,717.51,309.291,716.628,308.443C715.745,307.595,715.05,306.442,714.541,304.982C713.658,302.167,713.218,299.52,713.218,297.043C713.218,294.567,713.354,291.513,713.625,287.882C713.76,287.306,714.049,286.822,714.49,286.432Z" /></g></g><g transform="matrix(1,0,0,1,1173.19,351.499)" id="i6"><g id="i7" transform="matrix(1,0,0,1,-1676.991,-624.776)"><path stroke-miterlimit="1" stroke-linecap="square" stroke-width="0" stroke-opacity="0" stroke="#000000" fill="#383838" d="M736.018,308.086C736.018,308.086,735.457,287.424,735.457,287.424C735.457,286.78,735.678,286.254,736.119,285.846C736.559,285.439,737.001,285.236,737.442,285.236C738.527,285.236,739.155,285.694,739.325,286.61C739.46,287.526,739.528,288.476,739.528,289.46C741.36,287.052,743.651,285.847,746.399,285.847C750.605,285.847,752.71,290.648,752.71,300.249C752.71,301.132,752.71,302.463,752.71,304.244C752.71,306.025,752.607,307.323,752.404,308.137C752.166,309.155,751.437,309.664,750.216,309.664C749.402,309.664,748.994,309.122,748.994,308.036C748.994,308.036,749.045,305.186,749.045,305.186C749.045,301.251,748.918,298.562,748.664,297.12C748.409,295.679,748.163,294.534,747.926,293.685C747.349,291.853,746.416,290.937,745.127,290.937C743.43,290.937,742.242,291.548,741.565,292.769C740.818,294.092,740.377,295.653,740.242,297.451C740.004,300.606,739.886,303.949,739.886,307.476C739.886,308.155,739.632,308.698,739.122,309.105C738.613,309.512,738.003,309.715,737.29,309.715C736.441,309.714,736.018,309.172,736.018,308.086Z" /></g></g><g transform="matrix(1,0,0,1,1194.156,339.54)" id="i6"><g id="i7" transform="matrix(1,0,0,1,-1697.959,-612.815)"><path stroke-miterlimit="1" stroke-linecap="square" stroke-width="0" stroke-opacity="0" stroke="#000000" fill="#383838" d="M769.529,292.793C769.274,292.064,768.977,291.504,768.638,291.114C768.298,290.724,767.933,290.487,767.543,290.402C767.153,290.318,766.687,290.275,766.144,290.275C765.601,290.275,764.94,290.479,764.16,290.886C763.379,291.293,762.718,291.954,762.176,292.87C761.089,294.703,760.547,296.628,760.547,298.646C760.547,300.665,760.945,302.31,761.743,303.583C762.54,304.855,763.677,305.491,765.152,305.491C766.627,305.491,767.79,304.762,768.638,303.303C769.486,301.845,769.91,299.978,769.91,297.705C769.911,295.16,769.783,293.523,769.529,292.793ZM769.249,285.846C769.249,285.846,769.198,276.024,769.198,276.024C769.198,274.192,769.783,273.276,770.954,273.276C772.125,273.276,772.777,273.785,772.913,274.802C772.981,275.243,773.066,277.906,773.168,282.792C773.27,287.677,773.431,292.258,773.651,296.533C773.871,300.808,773.982,304.795,773.982,308.492C773.982,309.51,773.218,310.019,771.692,310.019C770.673,310.019,770.165,309.306,770.165,307.881C768.706,309.035,766.976,309.611,764.975,309.611C762.43,309.611,760.37,308.661,758.791,306.761C757.214,304.862,756.425,302.52,756.425,299.738C756.425,296.956,756.992,294.352,758.13,291.926C759.266,289.501,761.038,287.762,763.447,286.71C764.94,286.066,766.382,285.743,767.773,285.743C768.282,285.745,768.773,285.779,769.249,285.846Z" /></g></g></g></defs><g id="i8"><g><g transform="translate(640,0)"><g transform="translate(0,194.16)"><animateTransform repeatCount="indefinite" type="translate" attributeName="transform" dur="2s" begin="0s" calcMode="spline" values="0 194.16; 0 164.16; 0 194.16" keyTimes="0; 0.5; 1" keySplines="0.455 0.03 0.515 0.955; 0.455 0.03 0.515 0.955" fill="freeze" /><g transform="scale(1,1) translate(-103.49,-61.104)"><g clip-path="url(#i0)"><g transform="matrix(1,0,0,1,454.073,71.369)"><g transform="matrix(1,0,0,1,-993.227,-177.736)"><path stroke-miterlimit="1" stroke-linecap="square" stroke-width="0" stroke-opacity="0" stroke="#000000" fill="#262626" d="M578.789,187.837C574.385,188.571,568.146,188.938,560.072,188.938C551.998,188.938,546.494,187.594,543.558,184.901C540.621,182.212,539.154,176.369,539.154,167.378C539.154,158.387,539.825,148.51,541.172,137.744C542.518,126.981,544.017,119.059,545.668,113.982C547.319,108.907,550.591,106.367,555.484,106.367C558.787,106.367,560.683,107.775,561.173,110.587C561.173,111.321,561.173,112.485,561.173,114.073C561.173,115.664,560.806,117.926,560.071,120.862C557.135,142.394,555.667,157.744,555.667,166.919C555.667,169.121,555.728,170.956,555.851,172.424C558.053,172.914,561.018,173.158,564.751,173.158C568.48,173.158,573.22,172.791,578.972,172.057C579.215,169.488,579.338,166.034,579.338,161.69C579.338,157.349,579.399,153.708,579.522,150.772C579.642,147.836,580.072,145.758,580.806,144.534C581.54,143.312,583.65,142.699,587.136,142.699C590.623,142.699,592.825,143.312,593.742,144.534C594.659,145.758,595.118,147.441,595.118,149.58C595.118,151.722,594.934,156.185,594.567,162.975C594.201,169.764,594.017,188.879,594.017,220.316C594.017,225.821,591.325,228.573,585.944,228.573C585.697,228.573,585.454,228.573,585.21,228.573C580.683,228.573,578.421,224.843,578.421,217.38C578.421,217.38,578.421,207.288,578.421,207.288C578.421,207.288,578.789,187.837,578.789,187.837Z" /></g></g><g transform="matrix(1,0,0,1,521.966,71.552)"><g transform="matrix(1,0,0,1,-1061.12,-177.919)"><path stroke-miterlimit="1" stroke-linecap="square" stroke-width="0" stroke-opacity="0" stroke="#000000" fill="#262626" d="M643.378,211.691C647.782,211.691,651.481,209.397,654.48,204.81C657.476,200.223,659.526,195.085,660.627,189.396C661.728,183.708,662.278,176.308,662.278,167.193C662.278,158.081,661.053,148.385,658.608,138.11C657.383,132.485,655.517,127.989,653.011,124.623C650.502,121.26,647.475,119.577,643.928,119.577C639.157,119.577,635.057,122.452,631.634,128.201C625.516,138.6,622.459,152.422,622.459,169.67C622.459,180.926,624.569,190.743,628.79,199.121C633.011,207.502,637.873,211.691,643.378,211.691ZM607.047,170.405C607.047,154.014,609.983,139.578,615.855,127.101C618.791,120.742,622.764,115.725,627.782,112.055C632.797,108.385,638.545,106.55,645.03,106.55C654.572,106.55,662.371,112.76,668.426,125.175C674.482,137.592,677.509,152.332,677.509,169.397C677.509,186.462,674.694,200.591,669.069,211.784C663.441,222.977,655.49,228.574,645.215,228.574C619.768,228.572,607.047,209.185,607.047,170.405Z" /></g></g><g transform="matrix(1,0,0,1,605.088,71.369)"><g transform="matrix(1,0,0,1,-1144.241,-177.736)"><path stroke-miterlimit="1" stroke-linecap="square" stroke-width="0" stroke-opacity="0" stroke="#000000" fill="#262626" d="M729.803,187.837C725.399,188.571,719.16,188.938,711.086,188.938C703.013,188.938,697.508,187.594,694.572,184.901C691.635,182.212,690.168,176.369,690.168,167.378C690.168,158.387,690.839,148.51,692.187,137.744C693.532,126.981,695.032,119.059,696.683,113.982C698.334,108.907,701.606,106.367,706.499,106.367C709.802,106.367,711.697,107.775,712.187,110.587C712.187,111.321,712.187,112.485,712.187,114.073C712.187,115.664,711.82,117.926,711.085,120.862C708.149,142.394,706.682,157.744,706.682,166.919C706.682,169.121,706.743,170.956,706.866,172.424C709.068,172.914,712.032,173.158,715.765,173.158C719.494,173.158,724.234,172.791,729.986,172.057C730.229,169.488,730.353,166.034,730.353,161.69C730.353,157.349,730.413,153.708,730.537,150.772C730.657,147.836,731.087,145.758,731.821,144.534C732.554,143.312,734.665,142.699,738.151,142.699C741.637,142.699,743.839,143.312,744.757,144.534C745.674,145.758,746.133,147.441,746.133,149.58C746.133,151.722,745.949,156.185,745.582,162.975C745.215,169.764,745.031,188.879,745.031,220.316C745.031,225.821,742.34,228.573,736.958,228.573C736.711,228.573,736.468,228.573,736.224,228.573C731.698,228.573,729.435,224.843,729.435,217.38C729.435,217.38,729.435,207.288,729.435,207.288C729.435,207.288,729.803,187.837,729.803,187.837Z" /></g></g></g></g></g></g></g></g><g id="i9"><g><g transform="translate(640,0)"><g transform="translate(0,317.924)"><animateTransform repeatCount="indefinite" type="translate" attributeName="transform" dur="2s" begin="0s" calcMode="spline" values="0 317.924; 0 287.924; 0 317.924" keyTimes="0; 0.5; 1" keySplines="0.455 0.03 0.515 0.955; 0.455 0.03 0.515 0.955" fill="freeze" /><g transform="scale(1,1) translate(-135.09,-26.133)"><g clip-path="url(#i4)"><g transform="matrix(1,0,0,1,941.534,342.288)"><g transform="matrix(1,0,0,1,-1445.338,-615.565)"><path stroke-miterlimit="1" stroke-linecap="square" stroke-width="0" stroke-opacity="0" stroke="#000000" fill="#383838" d="M518.663,284.294C518.663,282.92,517.916,281.835,516.424,281.037C514.93,280.24,513.336,279.841,511.64,279.841C509.943,279.841,508.756,279.993,508.078,280.299C507.942,282.301,507.875,284.141,507.875,285.82C507.875,287.5,507.942,289.018,508.078,290.375C508.994,290.477,509.622,290.562,509.961,290.63C510.843,290.732,511.598,290.782,512.226,290.782C512.854,290.782,513.278,290.774,513.498,290.757C513.719,290.74,514.143,290.69,514.77,290.604C515.397,290.52,515.846,290.375,516.119,290.172C516.39,289.968,516.729,289.697,517.137,289.358C517.544,289.019,517.832,288.629,518.002,288.188C518.441,286.966,518.663,285.668,518.663,284.294ZM504.158,304.473C503.921,300.979,503.803,296.254,503.803,290.3C503.803,284.346,503.887,280.487,504.057,278.722C504.227,277.637,504.973,276.915,506.296,276.559C507.619,276.203,509.366,276.025,511.538,276.025C514.726,276.025,517.416,276.712,519.604,278.086C521.792,279.46,522.886,281.488,522.886,284.168C522.886,286.374,522.58,288.214,521.97,289.689C521.36,291.165,520.596,292.259,519.68,292.972C518.187,294.126,515.982,294.702,513.064,294.702C511.808,294.702,510.164,294.533,508.127,294.193C508.297,300.979,508.364,305.254,508.331,307.018C508.297,308.783,507.702,309.664,506.55,309.664C505.803,309.664,505.328,309.529,505.125,309.257C504.921,308.986,504.785,308.791,504.718,308.672C504.65,308.553,504.581,308.375,504.514,308.137C504.446,307.9,504.395,307.704,504.362,307.552C504.328,307.399,504.302,307.17,504.286,306.865C504.268,306.559,504.243,306.323,504.21,306.152C504.176,305.643,504.158,305.083,504.158,304.473Z" /></g></g><g transform="matrix(1,0,0,1,964.74,352.161)"><g transform="matrix(1,0,0,1,-1468.542,-625.437)"><path stroke-miterlimit="1" stroke-linecap="square" stroke-width="0" stroke-opacity="0" stroke="#000000" fill="#383838" d="M536.576,290.528C534.642,290.528,533.2,291.088,532.25,292.208C531.3,293.328,530.825,295.38,530.825,298.366C530.825,303.387,532.181,305.898,534.896,305.898C535.609,305.898,536.398,305.576,537.263,304.931C538.127,304.287,538.73,303.557,539.07,302.743C539.714,300.911,540.037,298.91,540.037,296.738C540.037,294.567,539.773,292.989,539.248,292.005C538.722,291.021,537.831,290.528,536.576,290.528ZM541.869,285.897C543.361,285.897,544.108,287.169,544.108,289.713C544.108,289.985,544.108,290.273,544.108,290.578C544.108,290.578,544.006,294.14,544.006,294.14C543.972,295.26,543.954,296.363,543.954,297.448C543.954,297.448,544.718,308.949,544.718,308.949C544.718,309.797,543.853,310.221,542.122,310.221C542.02,310.221,541.774,310.221,541.385,310.221C540.994,310.221,540.723,310.069,540.571,309.763C540.419,309.458,540.401,309.085,540.52,308.643C540.638,308.203,540.596,307.71,540.393,307.167C538.831,308.83,536.762,309.661,534.184,309.661C529.4,309.661,527.008,305.963,527.008,298.567C527.008,294.462,527.779,291.358,529.323,289.254C530.866,287.151,533.08,286.099,535.965,286.099C537.321,286.099,538.679,286.337,540.036,286.812C540.478,286.203,541.088,285.897,541.869,285.897Z" /></g></g><g transform="matrix(1,0,0,1,986.217,352.313)"><g transform="matrix(1,0,0,1,-1490.019,-625.589)"><path stroke-miterlimit="1" stroke-linecap="square" stroke-width="0" stroke-opacity="0" stroke="#000000" fill="#383838" d="M562.175,296.813C562.175,294.354,561.81,292.623,561.08,291.622C560.351,290.622,559.205,290.121,557.645,290.121C556.083,290.121,554.828,290.833,553.878,292.259C552.928,293.684,552.453,295.49,552.453,297.679C552.453,299.868,552.902,301.606,553.802,302.895C554.7,304.185,556.083,304.829,557.949,304.829C559.814,304.829,561.019,304.032,561.562,302.437C561.971,301.148,562.175,299.274,562.175,296.813ZM562.226,307.577C561.004,309.002,559.46,309.714,557.594,309.714C555.728,309.714,554.116,309.138,552.76,307.984C549.909,305.779,548.485,302.403,548.485,297.857C548.485,294.295,549.468,291.437,551.437,289.282C553.404,287.128,555.831,286.05,558.714,286.05C561.597,286.05,563.566,287.034,564.617,289.002C565.533,290.732,565.991,293.345,565.991,296.839C565.991,296.839,565.889,301.012,565.889,301.012C565.889,302.98,565.982,305.702,566.168,309.18C566.355,312.657,566.448,315.278,566.448,317.043C566.448,319.96,565.727,322.106,564.285,323.481C562.843,324.856,560.646,325.542,557.695,325.542C555.93,325.542,554.133,325.168,552.3,324.422C550.468,323.675,549.552,322.81,549.552,321.827C549.552,321.115,549.746,320.572,550.137,320.199C550.527,319.825,550.977,319.639,551.486,319.639C551.995,319.639,553.14,320.012,554.921,320.759C556.702,321.505,557.983,321.879,558.764,321.879C561.206,321.879,562.428,319.877,562.428,315.874C562.429,311.869,562.36,309.104,562.226,307.577Z" /></g></g><g transform="matrix(1,0,0,1,1007.082,352.364)"><g transform="matrix(1,0,0,1,-1510.885,-625.641)"><path stroke-miterlimit="1" stroke-linecap="square" stroke-width="0" stroke-opacity="0" stroke="#000000" fill="#383838" d="M577.849,289.612C576.559,289.612,575.457,290.342,574.541,291.8C574.201,292.309,573.879,293.463,573.574,295.26C578.323,295.26,580.698,294.09,580.698,291.749C580.698,290.325,579.748,289.612,577.849,289.612ZM577.595,286.101C579.393,286.101,581.106,286.628,582.735,287.679C584.364,288.731,585.177,290.029,585.177,291.573C585.177,293.117,584.516,294.61,583.193,296.052C581.87,297.494,580.105,298.367,577.9,298.673C576.95,298.809,575.525,298.877,573.626,298.877C573.999,301.761,574.728,303.661,575.814,304.577C576.152,304.951,576.61,305.137,577.188,305.137C579.291,305.137,581.055,304.468,582.48,303.127C583.906,301.787,584.923,301.117,585.534,301.117C585.805,301.117,586.213,301.371,586.756,301.88C587.298,302.389,587.57,302.865,587.57,303.305C587.57,304.187,586.501,305.46,584.364,307.122C583.414,307.903,582.268,308.556,580.928,309.081C579.587,309.607,578.34,309.87,577.188,309.87C574.236,309.87,572.064,307.97,570.673,304.17C569.79,301.829,569.35,299.251,569.35,296.434C569.35,293.619,570.012,291.192,571.335,289.157C572.658,287.122,574.744,286.101,577.595,286.101Z" /></g></g><g transform="matrix(1,0,0,1,1041.331,351.499)"><g transform="matrix(1,0,0,1,-1545.132,-624.776)"><path stroke-miterlimit="1" stroke-linecap="square" stroke-width="0" stroke-opacity="0" stroke="#000000" fill="#383838" d="M604.159,308.086C604.159,308.086,603.598,287.424,603.598,287.424C603.598,286.78,603.819,286.254,604.26,285.846C604.7,285.439,605.142,285.236,605.583,285.236C606.668,285.236,607.296,285.694,607.466,286.61C607.601,287.526,607.669,288.476,607.669,289.46C609.501,287.052,611.792,285.847,614.54,285.847C618.746,285.847,620.851,290.648,620.851,300.249C620.851,301.132,620.851,302.463,620.851,304.244C620.851,306.025,620.748,307.323,620.545,308.137C620.307,309.155,619.578,309.664,618.357,309.664C617.543,309.664,617.135,309.122,617.135,308.036C617.135,308.036,617.186,305.186,617.186,305.186C617.186,301.251,617.059,298.562,616.805,297.12C616.55,295.679,616.304,294.534,616.067,293.685C615.49,291.853,614.557,290.937,613.268,290.937C611.571,290.937,610.383,291.548,609.706,292.769C608.959,294.092,608.518,295.653,608.383,297.451C608.145,300.606,608.027,303.949,608.027,307.476C608.027,308.155,607.773,308.698,607.263,309.105C606.754,309.512,606.144,309.715,605.431,309.715C604.583,309.714,604.159,309.172,604.159,308.086Z" /></g></g><g transform="matrix(1,0,0,1,1062.654,352.211)"><g transform="matrix(1,0,0,1,-1566.457,-625.487)"><path stroke-miterlimit="1" stroke-linecap="square" stroke-width="0" stroke-opacity="0" stroke="#000000" fill="#383838" d="M633.625,290.121C632.2,290.121,631.029,290.868,630.113,292.36C629.197,293.854,628.739,295.431,628.739,297.093C628.739,299.672,629.248,301.64,630.265,302.996C631.284,304.353,632.436,305.032,633.726,305.032C636.033,305.032,637.509,304.032,638.154,302.03C638.425,301.081,638.561,299.893,638.561,298.468C638.562,292.904,636.915,290.121,633.625,290.121ZM634.235,285.948C636.678,285.948,638.688,287.118,640.266,289.459C641.843,291.8,642.632,294.608,642.632,297.882C642.632,301.156,641.825,303.947,640.215,306.254C638.603,308.562,636.465,309.714,633.802,309.714C631.139,309.714,628.993,308.536,627.364,306.177C625.735,303.819,624.922,301.198,624.922,298.314C624.922,294.616,625.667,291.665,627.161,289.459C628.756,287.119,631.113,285.948,634.235,285.948Z" /></g></g><g transform="matrix(1,0,0,1,1081.892,339.641)"><g transform="matrix(1,0,0,1,-1585.694,-612.917)"><path stroke-miterlimit="1" stroke-linecap="square" stroke-width="0" stroke-opacity="0" stroke="#000000" fill="#383838" d="M647.009,285.897C647.009,285.897,649.554,285.948,649.554,285.948C650.13,285.948,650.452,285.931,650.521,285.897C650.521,285.897,650.521,275.464,650.521,275.464C650.554,274.888,650.843,274.396,651.386,273.988C651.928,273.581,652.437,273.377,652.912,273.377C653.387,273.377,653.768,273.53,654.058,273.835C654.346,274.14,654.473,274.616,654.44,275.26C654.406,275.905,654.388,279.433,654.388,285.845C654.388,285.845,660.343,285.641,660.343,285.641C661.361,285.641,661.869,286.235,661.869,287.422C661.869,288.305,661.606,288.966,661.08,289.407C660.554,289.848,659.994,290.086,659.401,290.119C658.806,290.153,658.221,290.17,657.645,290.17C657.645,290.17,654.541,290.119,654.541,290.119C654.541,291.511,654.685,294.259,654.974,298.364C655.262,302.469,655.491,305.125,655.661,306.328C655.831,307.533,655.865,308.313,655.764,308.669C655.661,309.025,655.475,309.272,655.203,309.407C654.762,309.611,654.168,309.712,653.422,309.712C652.676,309.712,652.234,309.305,652.099,308.491C651.42,304.047,650.962,297.94,650.725,290.17C650.42,290.204,649.249,290.221,647.214,290.221C645.178,290.221,644.16,289.628,644.16,288.44C644.159,286.746,645.108,285.897,647.009,285.897Z" /></g></g><g transform="matrix(1,0,0,1,1111.813,339.54)"><g transform="matrix(1,0,0,1,-1615.615,-612.815)"><path stroke-miterlimit="1" stroke-linecap="square" stroke-width="0" stroke-opacity="0" stroke="#000000" fill="#383838" d="M681.896,274.014C682.421,273.624,682.879,273.403,683.27,273.352C683.66,273.301,684.559,273.276,685.967,273.276C687.374,273.276,688.536,273.479,689.452,273.886C690.368,274.293,690.827,275.108,690.827,276.329C690.827,277.551,690.334,278.161,689.35,278.161C689.147,278.161,688.57,277.983,687.62,277.627C686.67,277.271,686.059,277.093,685.788,277.093C684.6,277.093,683.888,277.805,683.651,279.23C683.583,279.739,683.548,280.782,683.548,282.36C683.548,283.938,683.548,285.235,683.548,286.253C683.548,286.253,687.11,286.253,687.11,286.253C688.603,286.321,689.349,286.847,689.349,287.831C689.349,289.256,688.331,290.003,686.295,290.07C685.99,290.104,685.616,290.121,685.176,290.121C684.735,290.121,684.226,290.104,683.65,290.07C683.717,291.427,683.87,293.845,684.108,297.322C684.344,300.8,684.463,304.184,684.463,307.475C684.463,308.154,684.192,308.697,683.65,309.104C683.106,309.511,682.546,309.714,681.97,309.714C681.054,309.714,680.596,309.172,680.596,308.086C680.596,305.032,680.477,302.064,680.24,299.18C680.003,296.297,679.833,293.26,679.731,290.071C676.677,290.071,674.896,289.766,674.387,289.155C674.184,288.918,674.081,288.613,674.081,288.239C674.081,287.357,674.445,286.781,675.176,286.509C675.905,286.238,676.744,286.102,677.695,286.102C678.646,286.102,679.324,286.102,679.731,286.102C679.833,280.573,680.138,277.145,680.647,275.822C680.954,275.006,681.369,274.404,681.896,274.014Z" /></g></g><g transform="matrix(1,0,0,1,1130.645,352.211)"><g transform="matrix(1,0,0,1,-1634.448,-625.487)"><path stroke-miterlimit="1" stroke-linecap="square" stroke-width="0" stroke-opacity="0" stroke="#000000" fill="#383838" d="M701.615,290.121C700.19,290.121,699.019,290.868,698.103,292.36C697.187,293.854,696.729,295.431,696.729,297.093C696.729,299.672,697.238,301.64,698.255,302.996C699.274,304.353,700.426,305.032,701.716,305.032C704.023,305.032,705.499,304.032,706.144,302.03C706.415,301.081,706.551,299.893,706.551,298.468C706.552,292.904,704.905,290.121,701.615,290.121ZM702.226,285.948C704.669,285.948,706.679,287.118,708.257,289.459C709.834,291.8,710.623,294.608,710.623,297.882C710.623,301.156,709.816,303.947,708.206,306.254C706.594,308.562,704.456,309.714,701.793,309.714C699.13,309.714,696.984,308.536,695.355,306.177C693.726,303.819,692.913,301.198,692.913,298.314C692.913,294.616,693.658,291.665,695.152,289.459C696.746,287.119,699.104,285.948,702.226,285.948Z" /></g></g><g transform="matrix(1,0,0,1,1150.95,352.11)"><g transform="matrix(1,0,0,1,-1654.753,-625.386)"><path stroke-miterlimit="1" stroke-linecap="square" stroke-width="0" stroke-opacity="0" stroke="#000000" fill="#383838" d="M714.49,286.432C714.93,286.042,715.381,285.847,715.839,285.847C716.297,285.847,716.653,285.932,716.907,286.101C717.162,286.271,717.314,286.424,717.365,286.559C717.416,286.695,717.475,286.933,717.544,287.272C717.34,289.918,717.238,292.302,717.238,294.422C717.238,296.543,717.493,298.969,718.002,301.7C718.511,304.431,719.07,305.797,719.681,305.797C720.598,305.797,721.759,305.288,723.167,304.27C724.574,303.252,725.585,302.184,726.195,301.064C725.788,296.178,725.585,291.988,725.585,288.494C725.585,287.782,725.814,287.171,726.272,286.662C726.73,286.153,727.281,285.899,727.926,285.899C728.977,285.899,729.503,286.611,729.503,288.036C729.503,290.445,729.682,294.024,730.037,298.774C730.393,303.524,730.758,306.544,731.132,307.833C731.199,308.105,731.234,308.418,731.234,308.774C731.234,309.13,731.005,309.47,730.547,309.792C730.089,310.114,729.494,310.275,728.766,310.275C728.036,310.275,727.552,309.868,727.315,309.053C727.247,308.375,727.078,307.357,726.806,306C724.431,308.477,722.039,309.715,719.63,309.715C718.511,309.715,717.51,309.291,716.628,308.443C715.745,307.595,715.05,306.442,714.541,304.982C713.658,302.167,713.218,299.52,713.218,297.043C713.218,294.567,713.354,291.513,713.625,287.882C713.76,287.306,714.049,286.822,714.49,286.432Z" /></g></g><g transform="matrix(1,0,0,1,1173.19,351.499)"><g transform="matrix(1,0,0,1,-1676.991,-624.776)"><path stroke-miterlimit="1" stroke-linecap="square" stroke-width="0" stroke-opacity="0" stroke="#000000" fill="#383838" d="M736.018,308.086C736.018,308.086,735.457,287.424,735.457,287.424C735.457,286.78,735.678,286.254,736.119,285.846C736.559,285.439,737.001,285.236,737.442,285.236C738.527,285.236,739.155,285.694,739.325,286.61C739.46,287.526,739.528,288.476,739.528,289.46C741.36,287.052,743.651,285.847,746.399,285.847C750.605,285.847,752.71,290.648,752.71,300.249C752.71,301.132,752.71,302.463,752.71,304.244C752.71,306.025,752.607,307.323,752.404,308.137C752.166,309.155,751.437,309.664,750.216,309.664C749.402,309.664,748.994,309.122,748.994,308.036C748.994,308.036,749.045,305.186,749.045,305.186C749.045,301.251,748.918,298.562,748.664,297.12C748.409,295.679,748.163,294.534,747.926,293.685C747.349,291.853,746.416,290.937,745.127,290.937C743.43,290.937,742.242,291.548,741.565,292.769C740.818,294.092,740.377,295.653,740.242,297.451C740.004,300.606,739.886,303.949,739.886,307.476C739.886,308.155,739.632,308.698,739.122,309.105C738.613,309.512,738.003,309.715,737.29,309.715C736.441,309.714,736.018,309.172,736.018,308.086Z" /></g></g><g transform="matrix(1,0,0,1,1194.156,339.54)"><g transform="matrix(1,0,0,1,-1697.959,-612.815)"><path stroke-miterlimit="1" stroke-linecap="square" stroke-width="0" stroke-opacity="0" stroke="#000000" fill="#383838" d="M769.529,292.793C769.274,292.064,768.977,291.504,768.638,291.114C768.298,290.724,767.933,290.487,767.543,290.402C767.153,290.318,766.687,290.275,766.144,290.275C765.601,290.275,764.94,290.479,764.16,290.886C763.379,291.293,762.718,291.954,762.176,292.87C761.089,294.703,760.547,296.628,760.547,298.646C760.547,300.665,760.945,302.31,761.743,303.583C762.54,304.855,763.677,305.491,765.152,305.491C766.627,305.491,767.79,304.762,768.638,303.303C769.486,301.845,769.91,299.978,769.91,297.705C769.911,295.16,769.783,293.523,769.529,292.793ZM769.249,285.846C769.249,285.846,769.198,276.024,769.198,276.024C769.198,274.192,769.783,273.276,770.954,273.276C772.125,273.276,772.777,273.785,772.913,274.802C772.981,275.243,773.066,277.906,773.168,282.792C773.27,287.677,773.431,292.258,773.651,296.533C773.871,300.808,773.982,304.795,773.982,308.492C773.982,309.51,773.218,310.019,771.692,310.019C770.673,310.019,770.165,309.306,770.165,307.881C768.706,309.035,766.976,309.611,764.975,309.611C762.43,309.611,760.37,308.661,758.791,306.761C757.214,304.862,756.425,302.52,756.425,299.738C756.425,296.956,756.992,294.352,758.13,291.926C759.266,289.501,761.038,287.762,763.447,286.71C764.94,286.066,766.382,285.743,767.773,285.743C768.282,285.745,768.773,285.779,769.249,285.846Z" /></g></g></g></g></g></g></g></g><g id="i10"><g><g transform="translate(640,0)"><g transform="translate(0,438.569)"><g transform="scale(0,0)"><animateTransform repeatCount="indefinite" type="scale" attributeName="transform" dur="2s" begin="0s" calcMode="spline" values="0 0; 1 1; 1 1; 0 0; 0 0" keyTimes="0; 0.333333; 0.5; 0.833333; 1" keySplines="0.455 0.03 0.515 0.955; 0 0 1 1; 0.455 0.03 0.515 0.955; 0 0 1 1" fill="freeze" /><g transform="translate(-51.388,-19.694)"><g id="i11" transform="matrix(1,0,0,1,-588.612,-357)"><path stroke-miterlimit="1" stroke-linecap="square" stroke-width="0" stroke-opacity="0" stroke="#000000" fill="#262626" d="M617.435,394.435C617.435,394.435,617.435,394.435,617.435,394.435C615.482,396.388,612.317,396.388,610.364,394.435C610.364,394.435,590.565,374.636,590.565,374.636C588.612,372.683,588.612,369.518,590.565,367.565C590.565,367.565,590.565,367.565,590.565,367.565C592.518,365.612,595.683,365.612,597.636,367.565C597.636,367.565,617.435,387.364,617.435,387.364C619.388,389.317,619.388,392.482,617.435,394.435Z" /></g><g id="i11" transform="matrix(1,0,0,1,-588.612,-357)"><path stroke-miterlimit="1" stroke-linecap="square" stroke-width="0" stroke-opacity="0" stroke="#000000" fill="#262626" d="M641,395C641,395,641,395,641,395C638.239,395,636,392.761,636,390C636,390,636,362,636,362C636,359.239,638.239,357,641,357C641,357,641,357,641,357C643.761,357,646,359.239,646,362C646,362,646,390,646,390C646,392.761,643.761,395,641,395Z" /></g><g id="i11" transform="matrix(1,0,0,1,-588.612,-357)"><path stroke-miterlimit="1" stroke-linecap="square" stroke-width="0" stroke-opacity="0" stroke="#000000" fill="#262626" d="M662.565,394.435C662.565,394.435,662.565,394.435,662.565,394.435C660.612,392.482,660.612,389.317,662.565,387.364C662.565,387.364,682.364,367.565,682.364,367.565C684.317,365.612,687.482,365.612,689.435,367.565C689.435,367.565,689.435,367.565,689.435,367.565C691.388,369.518,691.388,372.683,689.435,374.636C689.435,374.636,669.636,394.435,669.636,394.435C667.683,396.388,664.518,396.388,662.565,394.435Z" /></g></g></g></g></g></g></g><g id="i12"><g><g transform="translate(640,0)"><g transform="translate(0,602.444)"><g transform="scale(0,0)"><animateTransform repeatCount="indefinite" type="scale" attributeName="transform" dur="2s" begin="0s" calcMode="spline" values="0 0; 1 1; 1 1; 0 0; 0 0" keyTimes="0; 0.333333; 0.5; 0.833333; 1" keySplines="0.455 0.03 0.515 0.955; 0 0 1 1; 0.455 0.03 0.515 0.955; 0 0 1 1" fill="freeze" /><g transform="translate(-51.388,-19.694)"><g id="i13" transform="matrix(1,0,0,1,-586.612,-530.612)"><path stroke-miterlimit="1" stroke-linecap="square" stroke-width="0" stroke-opacity="0" stroke="#000000" fill="#262626" d="M615.435,532.565C615.435,532.565,615.435,532.565,615.435,532.565C613.482,530.612,610.317,530.612,608.364,532.565C608.364,532.565,588.565,552.364,588.565,552.364C586.612,554.317,586.612,557.482,588.565,559.435C588.565,559.435,588.565,559.435,588.565,559.435C590.518,561.388,593.683,561.388,595.636,559.435C595.636,559.435,615.435,539.636,615.435,539.636C617.388,537.683,617.388,534.518,615.435,532.565Z" /></g><g id="i13" transform="matrix(1,0,0,1,-586.612,-530.612)"><path stroke-miterlimit="1" stroke-linecap="square" stroke-width="0" stroke-opacity="0" stroke="#000000" fill="#262626" d="M639,532C639,532,639,532,639,532C636.239,532,634,534.239,634,537C634,537,634,565,634,565C634,567.761,636.239,570,639,570C639,570,639,570,639,570C641.761,570,644,567.761,644,565C644,565,644,537,644,537C644,534.239,641.761,532,639,532Z" /></g><g id="i13" transform="matrix(1,0,0,1,-586.612,-530.612)"><path stroke-miterlimit="1" stroke-linecap="square" stroke-width="0" stroke-opacity="0" stroke="#000000" fill="#262626" d="M660.565,532.565C660.565,532.565,660.565,532.565,660.565,532.565C658.612,534.518,658.612,537.683,660.565,539.636C660.565,539.636,680.364,559.435,680.364,559.435C682.317,561.388,685.482,561.388,687.435,559.435C687.435,559.435,687.435,559.435,687.435,559.435C689.388,557.482,689.388,554.317,687.435,552.364C687.435,552.364,667.636,532.565,667.636,532.565C665.683,530.612,662.518,530.612,660.565,532.565Z" /></g></g></g></g></g></g></g><g id="i14"><g><g transform="translate(640,0)"><animateTransform repeatCount="indefinite" type="translate" attributeName="transform" dur="2s" begin="0s" calcMode="spline" values="640 0; 613 0; 643 0" keyTimes="0; 0.5; 1" keySplines="0.455 0.03 0.515 0.955; 0.455 0.03 0.515 0.955" fill="freeze" /><g transform="translate(0,458.13)"><g transform="scale(1,1) translate(-640,-400)"><g id="i15"><path stroke-miterlimit="1" stroke-linecap="square" stroke-width="0" stroke-opacity="0" stroke="#000000" fill="#262626" d="M676,481C676,481,640,481,640,481C640,481,640,446,640,446C640,446,675.954,446,675.954,446C677.668,446,679.266,444.95,679.789,443.317C680.675,440.55,678.635,438,675.999,438C675.999,438,639.999,438,639.999,438C639.999,438,639.999,426.5,639.999,426.5C639.999,426.5,572.771,426.5,572.771,426.5C564.06,426.5,556.999,433.562,556.999,442.272C556.999,442.272,556.999,442.386,556.999,442.386C556.999,442.449,556.948,442.5,556.885,442.5C556.885,442.5,544.12,442.5,544.12,442.5C540.74,442.5,538,445.24,538,448.62C538,448.62,538,458,538,458C538,458,447.247,458,447.247,458C428.333,458,413,442.667,413,423.753C413,423.753,413,349.247,413,349.247C413,324.81,393.19,305,368.753,305C368.753,305,0,305,0,305C0,305,0,315,0,315C0,315,368.753,315,368.753,315C387.667,315,403,330.333,403,349.247C403,349.247,403,423.754,403,423.754C403,448.19,422.81,468,447.247,468C447.247,468,538,468,538,468C538,468,538,478.38,538,478.38C538,481.76,540.74,484.5,544.12,484.5C544.12,484.5,556.997,484.5,556.997,484.5C556.999,484.5,557,484.501,557,484.503C556.94,493.328,564.075,500.5,572.886,500.5C572.886,500.5,640,500.5,640,500.5C640,500.5,640,489,640,489C640,489,675.954,489,675.954,489C677.668,489,679.266,487.95,679.789,486.317C680.676,483.549,678.636,481,676,481Z" /></g></g></g></g></g></g><g id="i16"><g><g transform="translate(640,0)"><animateTransform repeatCount="indefinite" type="translate" attributeName="transform" dur="2s" begin="0s" calcMode="spline" values="640 0; 670 0; 640 0" keyTimes="0; 0.5; 1" keySplines="0.455 0.03 0.515 0.955; 0.455 0.03 0.515 0.955" fill="freeze" /><g transform="translate(0,448.791)"><g transform="translate(-640,-400)"><g id="i17"><path stroke-miterlimit="1" stroke-linecap="square" stroke-width="0" stroke-opacity="0" stroke="#000000" fill="#262626" d="M910.947,619.979C910.947,619.979,910.947,619.979,910.947,619.979ZM910.947,619.979C892.001,619.979,876.587,604.565,876.587,585.619C876.587,585.619,876.587,511.339,876.587,511.339C876.587,486.879,856.687,466.979,832.227,466.979C832.227,466.979,741.587,466.979,741.587,466.979C741.587,466.979,741.587,457.099,741.587,457.099C741.587,453.719,738.847,450.979,735.467,450.979C735.467,450.979,722.587,450.979,722.587,450.979C722.587,450.979,722.587,450.752,722.587,450.752C722.587,442.041,715.525,434.979,706.814,434.979C706.814,434.979,639.587,434.979,639.587,434.979C639.587,434.979,639.587,508.979,639.587,508.979C639.587,508.979,706.814,508.979,706.814,508.979C715.525,508.979,722.587,501.917,722.587,493.206C722.587,493.206,722.587,492.979,722.587,492.979C722.587,492.979,735.467,492.979,735.467,492.979C738.847,492.979,741.587,490.239,741.587,486.859C741.587,486.859,741.587,476.979,741.587,476.979C741.587,476.979,832.227,476.979,832.227,476.979C851.173,476.979,866.587,492.393,866.587,511.339C866.587,511.339,866.587,585.618,866.587,585.618C866.587,610.078,886.487,629.978,910.947,629.978C910.947,629.978,1279.587,629.978,1279.587,629.978C1279.587,629.978,1279.587,619.978,1279.587,619.978C1279.587,619.978,910.947,619.978,910.947,619.978C910.947,619.978,910.947,619.979,910.947,619.979Z" /></g></g></g></g></g></g></svg>